<svg width="90" height="41" viewBox="0 0 90 41" fill="none" xmlns="http://www.w3.org/2000/svg">
<path d="M9.68136 22.8203C7.69323 22.8203 6.00763 22.489 4.62458 21.8263V23.2958C4.62458 24.189 5.07119 24.722 5.96441 24.8949L14.0898 26.4076C15.4441 26.6669 16.6686 27.0127 17.7636 27.4449C18.8585 27.8483 19.7373 28.439 20.4 29.2169C21.0627 29.9661 21.3941 31.0034 21.3941 32.3288C21.3941 33.7407 20.9331 35.0373 20.011 36.2186C19.089 37.4288 17.7203 38.3941 15.9051 39.1144C14.1186 39.8636 11.8856 40.2381 9.20594 40.2381C6.90085 40.2381 5.07119 39.9932 3.71695 39.5034C2.36272 39.0424 1.39746 38.4373 0.821191 37.6881C0.273734 36.939 5.08459e-06 36.1466 5.08459e-06 35.311C5.08459e-06 34.2737 0.345768 33.222 1.03729 32.1559C1.75763 31.1186 2.63645 30.283 3.67373 29.6491C2.78051 29.3034 2.13221 28.8568 1.72882 28.3093C1.32543 27.7619 1.12373 27.1712 1.12373 26.5373C1.12373 25.961 1.2678 25.428 1.55594 24.9381C1.87289 24.4195 2.24746 23.9008 2.67967 23.3822L4.10594 21.5669C2.00255 20.3568 0.950853 18.4551 0.950853 15.8619C0.950853 13.7873 1.6856 12.1017 3.15509 10.8051C4.6534 9.50847 6.84323 8.86017 9.72458 8.86017C11.1941 8.86017 12.4763 9.03305 13.5712 9.37881C14.6949 9.72457 15.617 10.2144 16.3373 10.8483C17.2593 10.7042 18.1237 10.4737 18.9305 10.1568C19.7661 9.81101 20.5153 9.35 21.178 8.77373L21.7831 9.20593V11.4102H16.8992C17.9364 12.5627 18.4551 14.0466 18.4551 15.8619C18.4551 17.8788 17.7059 19.55 16.2076 20.8754C14.7381 22.172 12.5627 22.8203 9.68136 22.8203ZM9.63814 21.9559C10.7907 21.9559 11.6263 21.4805 12.1449 20.5297C12.6924 19.5788 12.9661 17.9941 12.9661 15.7754C12.9661 13.5568 12.6924 12.0008 12.1449 11.1076C11.6263 10.1856 10.8195 9.72457 9.72458 9.72457C8.65848 9.72457 7.8517 10.2 7.30424 11.1508C6.75678 12.0729 6.48306 13.6432 6.48306 15.8619C6.48306 18.0805 6.72797 19.6508 7.2178 20.5729C7.73645 21.4949 8.54323 21.9559 9.63814 21.9559ZM3.19831 33.928C3.19831 35.628 3.71695 36.9102 4.75424 37.7746C5.82034 38.639 7.49153 39.0712 9.7678 39.0712C12.1593 39.0712 13.9602 38.6822 15.1703 37.9042C16.3805 37.1263 16.9856 36.0314 16.9856 34.6195C16.9856 33.8127 16.6831 33.1644 16.078 32.6746C15.5017 32.1847 14.5076 31.8102 13.0958 31.5508L5.27289 30.0814C5.04238 30.0237 4.81187 29.9661 4.58136 29.9085C4.17797 30.4847 3.84662 31.133 3.58729 31.8534C3.32797 32.6025 3.19831 33.2941 3.19831 33.928ZM24.0759 30.2975V29.8653L24.7242 29.6924C25.3005 29.5195 25.6895 29.2602 25.8911 28.9144C26.1217 28.5686 26.2369 28.122 26.2369 27.5746V14.0466C26.2369 13.4127 26.1217 12.9517 25.8911 12.6636C25.6895 12.3466 25.3005 12.1305 24.7242 12.0153L24.0759 11.8424V11.4102L31.5098 8.90339L31.942 9.33559L32.331 13.0525V13.3983C32.7344 12.5915 33.253 11.8568 33.8869 11.1941C34.5496 10.5025 35.27 9.94068 36.0479 9.50847C36.8547 9.07627 37.6471 8.86017 38.425 8.86017C39.52 8.86017 40.3556 9.16271 40.9318 9.76779C41.5081 10.3729 41.7962 11.1364 41.7962 12.0585C41.7962 13.0381 41.5081 13.8017 40.9318 14.3491C40.3844 14.8678 39.7217 15.1271 38.9437 15.1271C37.7335 15.1271 36.6674 14.522 35.7454 13.3119L35.6589 13.2254C35.3708 12.822 35.0395 12.6059 34.6649 12.5771C34.2903 12.5195 33.9445 12.6924 33.6276 13.0958C33.3395 13.3551 33.0945 13.672 32.8928 14.0466C32.72 14.3924 32.5471 14.7958 32.3742 15.2568V27.3153C32.3742 28.4678 32.8784 29.1881 33.8869 29.4763L35.27 29.8653V30.2975H24.0759ZM49.391 30.9458C47.7198 30.9458 46.3079 30.4703 45.1554 29.5195C44.0317 28.5686 43.4698 27.2 43.4698 25.4136C43.4698 24.0593 44.1613 22.8203 45.5444 21.6966C46.9274 20.5441 49.1029 19.6797 52.0707 19.1034C52.5317 19.0169 53.0503 18.9305 53.6266 18.8441C54.2029 18.7288 54.8079 18.6136 55.4418 18.4983V15.0839C55.4418 13.1246 55.1969 11.7559 54.7071 10.978C54.2461 10.1712 53.5113 9.76779 52.5029 9.76779C51.8113 9.76779 51.2639 9.9983 50.8605 10.4593C50.4571 10.8915 50.1978 11.6551 50.0825 12.75L49.9961 13.2254C49.9384 14.4644 49.6359 15.372 49.0884 15.9483C48.541 16.5246 47.8639 16.8127 47.0571 16.8127C46.3079 16.8127 45.6884 16.5822 45.1986 16.1212C44.7088 15.6602 44.4639 15.0407 44.4639 14.2627C44.4639 13.0814 44.8673 12.0873 45.674 11.2805C46.5096 10.4737 47.6046 9.86864 48.9588 9.46525C50.313 9.06186 51.7825 8.86017 53.3673 8.86017C55.9317 8.86017 57.9054 9.49407 59.2884 10.7619C60.7003 12.0008 61.4062 14.0322 61.4062 16.8559V26.4076C61.4062 27.7042 62.0113 28.3525 63.2215 28.3525H64.1723L64.5613 28.6983C64.0139 29.3898 63.4088 29.9229 62.7461 30.2975C62.1122 30.672 61.2046 30.8593 60.0232 30.8593C58.7554 30.8593 57.7469 30.5712 56.9978 29.9949C56.2774 29.3898 55.802 28.5975 55.5715 27.6178C54.7071 28.5398 53.8139 29.3322 52.8918 29.9949C51.9986 30.6288 50.8317 30.9458 49.391 30.9458ZM52.0274 28.3093C52.6037 28.3093 53.1368 28.1797 53.6266 27.9203C54.1452 27.6322 54.7503 27.2 55.4418 26.6237V19.3627C55.1537 19.4203 54.8656 19.478 54.5774 19.5356C54.2893 19.5932 53.9579 19.6508 53.5834 19.7085C52.2579 20.0542 51.1918 20.6449 50.3851 21.4805C49.6071 22.2873 49.2181 23.3822 49.2181 24.7653C49.2181 25.9466 49.4918 26.8398 50.0393 27.4449C50.5868 28.0212 51.2495 28.3093 52.0274 28.3093ZM73.6972 30.8593L66.3929 30.2975V29.8653L66.8251 29.7788C67.9489 29.5195 68.5107 28.7991 68.5107 27.6178V4.49491C68.5107 3.88983 68.4099 3.42881 68.2082 3.11186C68.0353 2.79491 67.6607 2.57881 67.0845 2.46356L66.4794 2.29068V1.85847L74.1726 -2.84724e-06L74.6912 0.38898L74.5183 6.48305V10.8483C75.4692 10.1856 76.5065 9.69576 77.6302 9.37881C78.7539 9.03305 79.8921 8.86017 81.0446 8.86017C82.687 8.86017 84.1421 9.24915 85.4099 10.0271C86.6777 10.7763 87.6717 11.9576 88.3921 13.5712C89.1412 15.1559 89.5158 17.2017 89.5158 19.7085C89.5158 22.2153 89.098 24.3042 88.2624 25.9754C87.4556 27.6178 86.3607 28.8568 84.9777 29.6924C83.6234 30.528 82.1251 30.9458 80.4828 30.9458C79.4167 30.9458 78.3361 30.8017 77.2412 30.5136C76.1751 30.2254 75.2243 29.822 74.3887 29.3034L73.6972 30.8593ZM78.3217 29.4763C79.2438 29.4763 80.0506 29.1881 80.7421 28.6119C81.4336 28.0356 81.9811 27.0559 82.3845 25.6729C82.7878 24.261 82.9895 22.3305 82.9895 19.8814C82.9895 17.4322 82.8022 15.5449 82.4277 14.2195C82.0531 12.8941 81.52 11.972 80.8285 11.4534C80.1658 10.9347 79.359 10.6754 78.4082 10.6754C77.0539 10.6754 75.8006 11.05 74.648 11.7991V28.3958C75.1955 28.7415 75.7573 29.0153 76.3336 29.2169C76.9099 29.3898 77.5726 29.4763 78.3217 29.4763Z" fill="black"/>
</svg>
