<svg width="520" height="520" viewBox="0 0 520 520" fill="none" xmlns="http://www.w3.org/2000/svg">
<rect x="0.5" y="0.5" width="519" height="519" fill="#21252E"/>
<rect x="0.5" y="0.5" width="519" height="519" stroke="url(#paint0_linear_61_120)"/>
<path d="M305.179 182.462C296.702 182.462 288.941 185.387 282.745 190.313C280.082 192.431 274.005 199.52 271.422 203.487L215.183 288.718C203.933 308.821 179.667 326.051 153.31 326.051C114.479 326.051 83 293.908 83 254.256C83 214.605 114.479 182.462 153.31 182.462C168.993 182.462 183.477 187.705 195.172 196.568L215.183 225.538C208.887 220.294 162.069 216.923 153.31 216.923C133.118 216.923 116.749 233.638 116.749 254.256C116.749 274.875 133.118 291.59 153.31 291.59C166.639 291.59 178.622 282.974 184.691 273.425L243.316 184.41C247.144 178.53 255.557 168.254 262.01 163.123C273.923 153.651 288.928 148 305.179 148C323.466 148 340.122 155.129 352.628 166.813C338.433 169.452 325.33 175.291 314.064 183.571C311.22 182.846 308.244 182.462 305.179 182.462Z" fill="url(#paint1_linear_61_120)"/>
<path d="M214.821 337.538C223.298 337.538 231.059 334.613 237.255 329.687C239.918 327.569 245.995 320.48 248.578 316.513L304.817 231.282C316.067 211.179 340.333 193.949 366.69 193.949C405.521 193.949 437 226.092 437 265.744C437 305.395 405.521 337.538 366.69 337.538C351.007 337.538 336.523 332.295 324.828 323.432L303.771 294.462C310.067 299.706 357.931 303.077 366.69 303.077C386.882 303.077 403.251 286.362 403.251 265.744C403.251 245.125 386.882 228.41 366.69 228.41C353.361 228.41 341.378 237.026 335.309 246.575L276.684 335.59C272.856 341.47 264.443 351.746 257.99 356.877C246.077 366.349 231.072 372 214.821 372C196.534 372 179.878 364.871 167.372 353.187C181.567 350.548 194.67 344.709 205.936 336.429C208.78 337.154 211.756 337.538 214.821 337.538Z" fill="url(#paint2_linear_61_120)"/>
<defs>
<linearGradient id="paint0_linear_61_120" x1="271.62" y1="520" x2="293.578" y2="0.867297" gradientUnits="userSpaceOnUse">
<stop stop-color="#1F232E"/>
<stop offset="1" stop-color="#393C45"/>
</linearGradient>
<linearGradient id="paint1_linear_61_120" x1="168.55" y1="183.985" x2="372.118" y2="553.313" gradientUnits="userSpaceOnUse">
<stop stop-color="white"/>
<stop offset="0.276697" stop-color="#FF9AB1"/>
</linearGradient>
<linearGradient id="paint2_linear_61_120" x1="168.55" y1="183.985" x2="372.118" y2="553.313" gradientUnits="userSpaceOnUse">
<stop stop-color="white"/>
<stop offset="0.276697" stop-color="#FF9AB1"/>
</linearGradient>
</defs>
</svg>
