<svg width="106" height="106" viewBox="0 0 106 106" fill="none" xmlns="http://www.w3.org/2000/svg">
<g filter="url(#filter0_d_202_71)">
<circle cx="53" cy="49" r="49" fill="url(#paint0_linear_202_71)"/>
</g>
<path d="M18.2062 52.5229C16.218 52.5229 14.5324 52.1915 13.1494 51.5288V52.9983C13.1494 53.8915 13.596 54.4246 14.4892 54.5975L22.6146 56.1102C23.9689 56.3695 25.1935 56.7153 26.2884 57.1475C27.3833 57.5508 28.2621 58.1415 28.9248 58.9195C29.5875 59.6686 29.9189 60.7059 29.9189 62.0314C29.9189 63.4432 29.4579 64.7398 28.5358 65.9212C27.6138 67.1314 26.2452 68.0966 24.4299 68.8169C22.6435 69.5661 20.4104 69.9407 17.7307 69.9407C15.4257 69.9407 13.596 69.6958 12.2418 69.2059C10.8875 68.7449 9.92227 68.1398 9.346 67.3907C8.79854 66.6415 8.52482 65.8492 8.52482 65.0136C8.52482 63.9763 8.87058 62.9246 9.5621 61.8585C10.2824 60.8212 11.1613 59.9856 12.1985 59.3517C11.3053 59.0059 10.657 58.5593 10.2536 58.0119C9.85024 57.4644 9.64854 56.8737 9.64854 56.2398C9.64854 55.6636 9.79261 55.1305 10.0807 54.6407C10.3977 54.122 10.7723 53.6034 11.2045 53.0847L12.6307 51.2695C10.5274 50.0593 9.47566 48.1576 9.47566 45.5644C9.47566 43.4898 10.2104 41.8042 11.6799 40.5076C13.1782 39.211 15.368 38.5627 18.2494 38.5627C19.7189 38.5627 21.0011 38.7356 22.096 39.0814C23.2197 39.4271 24.1418 39.9169 24.8621 40.5508C25.7841 40.4068 26.6485 40.1763 27.4553 39.8593C28.2909 39.5136 29.0401 39.0525 29.7028 38.4763L30.3079 38.9085V41.1127H25.424C26.4613 42.2653 26.9799 43.7492 26.9799 45.5644C26.9799 47.5814 26.2307 49.2525 24.7324 50.578C23.263 51.8746 21.0875 52.5229 18.2062 52.5229ZM18.163 51.6585C19.3155 51.6585 20.1511 51.1831 20.6697 50.2322C21.2172 49.2814 21.4909 47.6966 21.4909 45.478C21.4909 43.2593 21.2172 41.7034 20.6697 40.8102C20.1511 39.8881 19.3443 39.4271 18.2494 39.4271C17.1833 39.4271 16.3765 39.9025 15.8291 40.8534C15.2816 41.7754 15.0079 43.3458 15.0079 45.5644C15.0079 47.7831 15.2528 49.3534 15.7426 50.2754C16.2613 51.1975 17.068 51.6585 18.163 51.6585ZM11.7231 63.6305C11.7231 65.3305 12.2418 66.6127 13.2791 67.4771C14.3452 68.3415 16.0163 68.7737 18.2926 68.7737C20.6841 68.7737 22.485 68.3847 23.6952 67.6068C24.9053 66.8288 25.5104 65.7339 25.5104 64.322C25.5104 63.5153 25.2079 62.8669 24.6028 62.3771C24.0265 61.8873 23.0324 61.5127 21.6206 61.2534L13.7977 59.7839C13.5672 59.7263 13.3367 59.6686 13.1062 59.611C12.7028 60.1873 12.3714 60.8356 12.1121 61.5559C11.8528 62.3051 11.7231 62.9966 11.7231 63.6305ZM32.6007 60V59.5678L33.249 59.3949C33.8253 59.222 34.2143 58.9627 34.416 58.6169C34.6465 58.2712 34.7617 57.8246 34.7617 57.2771V43.7492C34.7617 43.1153 34.6465 42.6542 34.416 42.3661C34.2143 42.0492 33.8253 41.8331 33.249 41.7178L32.6007 41.5449V41.1127L40.0346 38.6059L40.4668 39.0381L40.8558 42.7551V43.1008C41.2592 42.2941 41.7778 41.5593 42.4117 40.8966C43.0744 40.2051 43.7948 39.6432 44.5727 39.211C45.3795 38.7788 46.1719 38.5627 46.9499 38.5627C48.0448 38.5627 48.8804 38.8653 49.4566 39.4703C50.0329 40.0754 50.321 40.839 50.321 41.761C50.321 42.7407 50.0329 43.5042 49.4566 44.0517C48.9092 44.5703 48.2465 44.8297 47.4685 44.8297C46.2583 44.8297 45.1922 44.2246 44.2702 43.0144L44.1838 42.928C43.8956 42.5246 43.5643 42.3085 43.1897 42.2797C42.8151 42.222 42.4693 42.3949 42.1524 42.7983C41.8643 43.0576 41.6193 43.3746 41.4177 43.7492C41.2448 44.0949 41.0719 44.4983 40.899 44.9593V57.0178C40.899 58.1703 41.4032 58.8907 42.4117 59.1788L43.7948 59.5678V60H32.6007ZM57.9158 60.6483C56.2446 60.6483 54.8328 60.1729 53.6802 59.222C52.5565 58.2712 51.9946 56.9025 51.9946 55.1161C51.9946 53.7619 52.6861 52.5229 54.0692 51.3992C55.4522 50.2466 57.6277 49.3822 60.5955 48.8059C61.0565 48.7195 61.5751 48.6331 62.1514 48.5466C62.7277 48.4314 63.3328 48.3161 63.9667 48.2008V44.7864C63.9667 42.8271 63.7217 41.4585 63.2319 40.6805C62.7709 39.8737 62.0361 39.4703 61.0277 39.4703C60.3361 39.4703 59.7887 39.7008 59.3853 40.1619C58.9819 40.5941 58.7226 41.3576 58.6073 42.4525L58.5209 42.928C58.4633 44.1669 58.1607 45.0746 57.6133 45.6508C57.0658 46.2271 56.3887 46.5153 55.5819 46.5153C54.8328 46.5153 54.2133 46.2847 53.7234 45.8237C53.2336 45.3627 52.9887 44.7432 52.9887 43.9653C52.9887 42.7839 53.3921 41.7898 54.1989 40.9831C55.0344 40.1763 56.1294 39.5712 57.4836 39.1678C58.8378 38.7644 60.3073 38.5627 61.8921 38.5627C64.4565 38.5627 66.4302 39.1966 67.8133 40.4644C69.2251 41.7034 69.9311 43.7347 69.9311 46.5585V56.1102C69.9311 57.4068 70.5361 58.0551 71.7463 58.0551H72.6972L73.0861 58.4008C72.5387 59.0924 71.9336 59.6254 71.2709 60C70.637 60.3746 69.7294 60.5619 68.548 60.5619C67.2802 60.5619 66.2717 60.2737 65.5226 59.6975C64.8022 59.0924 64.3268 58.3 64.0963 57.3203C63.2319 58.2424 62.3387 59.0347 61.4166 59.6975C60.5234 60.3314 59.3565 60.6483 57.9158 60.6483ZM60.5522 58.0119C61.1285 58.0119 61.6616 57.8822 62.1514 57.6229C62.67 57.3347 63.2751 56.9025 63.9667 56.3263V49.0653C63.6785 49.1229 63.3904 49.1805 63.1022 49.2381C62.8141 49.2958 62.4828 49.3534 62.1082 49.411C60.7828 49.7568 59.7166 50.3475 58.9099 51.1831C58.1319 51.9898 57.7429 53.0847 57.7429 54.4678C57.7429 55.6492 58.0166 56.5424 58.5641 57.1475C59.1116 57.7237 59.7743 58.0119 60.5522 58.0119ZM82.222 60.5619L74.9177 60V59.5678L75.3499 59.4814C76.4737 59.222 77.0355 58.5017 77.0355 57.3203V34.1975C77.0355 33.5924 76.9347 33.1314 76.733 32.8144C76.5601 32.4975 76.1855 32.2814 75.6093 32.1661L75.0042 31.9932V31.561L82.6974 29.7025L83.216 30.0915L83.0432 36.1856V40.5508C83.994 39.8881 85.0313 39.3983 86.155 39.0814C87.2788 38.7356 88.4169 38.5627 89.5694 38.5627C91.2118 38.5627 92.6669 38.9517 93.9347 39.7297C95.2025 40.4788 96.1965 41.6602 96.9169 43.2737C97.666 44.8585 98.0406 46.9042 98.0406 49.411C98.0406 51.9178 97.6228 54.0068 96.7872 55.678C95.9804 57.3203 94.8855 58.5593 93.5025 59.3949C92.1482 60.2305 90.6499 60.6483 89.0076 60.6483C87.9415 60.6483 86.861 60.5042 85.766 60.2161C84.6999 59.928 83.7491 59.5246 82.9135 59.0059L82.222 60.5619ZM86.8465 59.1788C87.7686 59.1788 88.5754 58.8907 89.2669 58.3144C89.9584 57.7381 90.5059 56.7585 90.9093 55.3754C91.3127 53.9636 91.5143 52.0331 91.5143 49.5839C91.5143 47.1347 91.3271 45.2475 90.9525 43.922C90.5779 42.5966 90.0449 41.6746 89.3533 41.1559C88.6906 40.6373 87.8838 40.378 86.933 40.378C85.5788 40.378 84.3254 40.7525 83.1728 41.5017V58.0983C83.7203 58.4441 84.2821 58.7178 84.8584 58.9195C85.4347 59.0924 86.0974 59.1788 86.8465 59.1788Z" fill="white"/>
<defs>
<filter id="filter0_d_202_71" x="0" y="0" width="106" height="106" filterUnits="userSpaceOnUse" color-interpolation-filters="sRGB">
<feFlood flood-opacity="0" result="BackgroundImageFix"/>
<feColorMatrix in="SourceAlpha" type="matrix" values="0 0 0 0 0 0 0 0 0 0 0 0 0 0 0 0 0 0 127 0" result="hardAlpha"/>
<feOffset dy="4"/>
<feGaussianBlur stdDeviation="2"/>
<feComposite in2="hardAlpha" operator="out"/>
<feColorMatrix type="matrix" values="0 0 0 0 0 0 0 0 0 0 0 0 0 0 0 0 0 0 0.25 0"/>
<feBlend mode="normal" in2="BackgroundImageFix" result="effect1_dropShadow_202_71"/>
<feBlend mode="normal" in="SourceGraphic" in2="effect1_dropShadow_202_71" result="shape"/>
</filter>
<linearGradient id="paint0_linear_202_71" x1="53" y1="0" x2="53" y2="98" gradientUnits="userSpaceOnUse">
<stop stop-color="#FB5976"/>
<stop offset="1" stop-color="#FA243B"/>
</linearGradient>
</defs>
</svg>
