<svg width="105" height="30" viewBox="0 0 105 30" fill="none" xmlns="http://www.w3.org/2000/svg">
<path d="M18.5647 11.7471L22.219 5.71169C22.5048 5.23994 23.1926 5.24678 23.4684 5.72449L27.6846 13.0272C27.9604 13.5049 27.6225 14.104 27.071 14.1156L20.017 14.2626" stroke="#FF3E3E" stroke-width="2.5" stroke-linecap="round" stroke-linejoin="round"/>
<path d="M12.9657 7.85579L4.79436 12.5735C3.40577 13.3752 2.93 15.1508 3.7317 16.5394L8.44945 24.7108C9.25115 26.0994 11.0267 26.5751 12.4153 25.7734L20.5867 21.0557C21.9753 20.254 22.4511 18.4784 21.6493 17.0898L16.9316 8.91845C16.1299 7.52985 14.3543 7.05409 12.9657 7.85579Z" stroke="#FF3E3E" stroke-width="2.5" stroke-linecap="round" stroke-linejoin="round"/>
<path d="M8.77326 16.562C9.29398 16.2614 9.47239 15.5956 9.17175 15.0748C8.87112 14.5541 8.20527 14.3757 7.68455 14.6763C7.16383 14.977 6.98542 15.6428 7.28605 16.1636C7.58669 16.6843 8.25254 16.8627 8.77326 16.562Z" fill="#FF3E3E"/>
<path d="M38.394 13.9013L33.9567 26H31.01L26.5727 13.9013H29.1727L32.5007 23.5213L35.8114 13.9013H38.394ZM41.0796 15.2533C40.652 15.2533 40.2938 15.1204 40.0049 14.8547C39.7276 14.5773 39.5889 14.2364 39.5889 13.832C39.5889 13.4276 39.7276 13.0924 40.0049 12.8267C40.2938 12.5493 40.652 12.4107 41.0796 12.4107C41.5072 12.4107 41.8596 12.5493 42.1369 12.8267C42.4258 13.0924 42.5703 13.4276 42.5703 13.832C42.5703 14.2364 42.4258 14.5773 42.1369 14.8547C41.8596 15.1204 41.5072 15.2533 41.0796 15.2533ZM42.2756 16.3973V26H39.8489V16.3973H42.2756ZM44.0492 21.164C44.0492 20.1933 44.2398 19.3324 44.6212 18.5813C45.014 17.8302 45.5456 17.2524 46.2158 16.848C46.886 16.4436 47.6314 16.2413 48.4518 16.2413C49.0758 16.2413 49.6709 16.38 50.2372 16.6573C50.8034 16.9231 51.254 17.2813 51.5892 17.732V13.1733H54.0505V26H51.5892V24.5787C51.2887 25.0524 50.8669 25.4338 50.3238 25.7227C49.7807 26.0116 49.1509 26.156 48.4345 26.156C47.6256 26.156 46.886 25.948 46.2158 25.532C45.5456 25.116 45.014 24.5324 44.6212 23.7813C44.2398 23.0187 44.0492 22.1462 44.0492 21.164ZM51.6065 21.1987C51.6065 20.6093 51.4909 20.1067 51.2598 19.6907C51.0287 19.2631 50.7167 18.9396 50.3238 18.72C49.9309 18.4889 49.5092 18.3733 49.0585 18.3733C48.6078 18.3733 48.1918 18.4831 47.8105 18.7027C47.4292 18.9222 47.1172 19.2458 46.8745 19.6733C46.6434 20.0893 46.5278 20.5862 46.5278 21.164C46.5278 21.7418 46.6434 22.2502 46.8745 22.6893C47.1172 23.1169 47.4292 23.4462 47.8105 23.6773C48.2034 23.9084 48.6194 24.024 49.0585 24.024C49.5092 24.024 49.9309 23.9142 50.3238 23.6947C50.7167 23.4636 51.0287 23.14 51.2598 22.724C51.4909 22.2964 51.6065 21.788 51.6065 21.1987Z" fill="#FF3E3E"/>
<path d="M60.3205 13.9187C61.6379 13.9187 62.7761 14.1671 63.7352 14.664C64.7059 15.1493 65.4454 15.8484 65.9539 16.7613C66.4739 17.6742 66.7339 18.7489 66.7339 19.9853C66.7339 21.2218 66.4739 22.2964 65.9539 23.2093C65.4454 24.1107 64.7059 24.804 63.7352 25.2893C62.7761 25.7631 61.6379 26 60.3205 26H56.5592V13.9187H60.3205ZM60.3205 24.7C61.8805 24.7 63.0708 24.2898 63.8912 23.4693C64.7117 22.6373 65.1219 21.476 65.1219 19.9853C65.1219 18.4831 64.7059 17.3102 63.8739 16.4667C63.0534 15.6231 61.869 15.2013 60.3205 15.2013H58.1365V24.7H60.3205ZM72.9571 26.156C72.0673 26.156 71.2584 25.9538 70.5304 25.5493C69.814 25.1449 69.2478 24.5729 68.8318 23.8333C68.4273 23.0822 68.2251 22.2156 68.2251 21.2333C68.2251 20.2627 68.4331 19.4076 68.8491 18.668C69.2766 17.9169 69.8544 17.3449 70.5824 16.952C71.3104 16.5476 72.1251 16.3453 73.0264 16.3453C73.9278 16.3453 74.7424 16.5476 75.4704 16.952C76.1984 17.3449 76.7704 17.9111 77.1864 18.6507C77.614 19.3902 77.8278 20.2511 77.8278 21.2333C77.8278 22.2156 77.6082 23.0822 77.1691 23.8333C76.7415 24.5729 76.158 25.1449 75.4184 25.5493C74.6789 25.9538 73.8584 26.156 72.9571 26.156ZM72.9571 24.7693C73.5233 24.7693 74.0549 24.6364 74.5518 24.3707C75.0486 24.1049 75.4473 23.7062 75.7478 23.1747C76.0598 22.6431 76.2158 21.996 76.2158 21.2333C76.2158 20.4707 76.0655 19.8236 75.7651 19.292C75.4646 18.7604 75.0718 18.3676 74.5864 18.1133C74.1011 17.8476 73.5753 17.7147 73.0091 17.7147C72.4313 17.7147 71.8998 17.8476 71.4144 18.1133C70.9406 18.3676 70.5593 18.7604 70.2704 19.292C69.9815 19.8236 69.8371 20.4707 69.8371 21.2333C69.8371 22.0076 69.9758 22.6604 70.2531 23.192C70.542 23.7236 70.9233 24.1222 71.3971 24.388C71.8709 24.6422 72.3909 24.7693 72.9571 24.7693ZM92.555 16.5013L89.591 26H87.9617L85.6737 18.46L83.3857 26H81.7563L78.775 16.5013H80.387L82.571 24.4747L84.9283 16.5013H86.5403L88.8457 24.492L90.995 16.5013H92.555ZM98.7484 16.328C99.904 16.328 100.84 16.6804 101.556 17.3853C102.273 18.0787 102.631 19.084 102.631 20.4013V26H101.071V20.6267C101.071 19.6791 100.834 18.9569 100.36 18.46C99.8866 17.9516 99.2395 17.6973 98.4191 17.6973C97.5871 17.6973 96.9226 17.9573 96.4258 18.4773C95.9404 18.9973 95.6978 19.7542 95.6978 20.748V26H94.1204V16.5013H95.6978V17.8533C96.0098 17.368 96.4315 16.9924 96.9631 16.7267C97.5062 16.4609 98.1013 16.328 98.7484 16.328Z" fill="#FFA500"/>
</svg>
